<?xml version="1.0" encoding="utf-8"?>
<!-- Generator: Adobe Illustrator 27.5.0, SVG Export Plug-In . SVG Version: 6.00 Build 0)  -->
<svg version="1.1" id="Layer_1" xmlns="http://www.w3.org/2000/svg" xmlns:xlink="http://www.w3.org/1999/xlink" x="0px" y="0px"
	 viewBox="0 0 360 216" style="enable-background:new 0 0 360 216;" xml:space="preserve">
<style type="text/css">
	.st0{fill:#FFFFFF;}
</style>
<g>
	<g>
		<path class="st0" d="M152.47,148c-0.78,0-1.56-0.09-2.36-0.27c-0.79-0.18-1.55-0.45-2.28-0.8c-0.73-0.35-1.4-0.78-2.01-1.29
			c-0.61-0.51-1.11-1.08-1.5-1.73c-0.18-0.31-0.31-0.56-0.39-0.76c-0.08-0.19-0.08-0.38-0.02-0.56c0.06-0.18,0.24-0.36,0.53-0.54
			c0.34-0.23,0.62-0.33,0.86-0.29c0.23,0.04,0.44,0.16,0.62,0.37c0.18,0.21,0.38,0.47,0.58,0.78c0.65,0.96,1.52,1.67,2.63,2.12
			c1.1,0.45,2.16,0.68,3.17,0.68c1.32,0,2.52-0.18,3.58-0.54c1.06-0.36,1.91-0.92,2.55-1.65c0.63-0.74,0.95-1.69,0.95-2.86
			c0-0.96-0.2-1.78-0.6-2.45c-0.4-0.68-0.95-1.25-1.65-1.71c-0.7-0.47-1.47-0.86-2.32-1.19c-0.84-0.32-1.72-0.63-2.63-0.92
			c-0.75-0.23-1.5-0.49-2.24-0.78c-0.74-0.29-1.43-0.62-2.08-0.99c-0.65-0.38-1.22-0.82-1.71-1.32c-0.49-0.51-0.88-1.11-1.17-1.81
			c-0.29-0.7-0.43-1.53-0.43-2.49c0-1.38,0.33-2.58,0.99-3.6c0.66-1.03,1.59-1.83,2.78-2.41c1.19-0.58,2.58-0.88,4.17-0.88
			c0.86,0,1.67,0.09,2.45,0.27c0.78,0.18,1.49,0.42,2.12,0.72c0.63,0.3,1.19,0.62,1.67,0.97c0.48,0.35,0.86,0.71,1.15,1.07
			c0.34,0.39,0.53,0.71,0.58,0.97c0.05,0.26-0.1,0.54-0.47,0.86c-0.31,0.26-0.6,0.38-0.86,0.37c-0.26-0.01-0.53-0.18-0.82-0.49
			c-0.6-0.7-1.21-1.23-1.85-1.58c-0.64-0.35-1.29-0.58-1.95-0.7c-0.66-0.12-1.36-0.18-2.08-0.18c-0.8,0-1.55,0.1-2.24,0.29
			c-0.69,0.19-1.29,0.49-1.79,0.89c-0.51,0.4-0.89,0.89-1.17,1.46c-0.27,0.57-0.41,1.23-0.41,1.99c0,0.78,0.18,1.45,0.53,2.01
			c0.35,0.56,0.83,1.04,1.44,1.44s1.3,0.76,2.06,1.07c0.77,0.31,1.56,0.6,2.39,0.86c1.01,0.31,2.02,0.68,3.02,1.09
			c1,0.42,1.9,0.92,2.71,1.52s1.45,1.34,1.95,2.24c0.49,0.89,0.74,1.99,0.74,3.29c0,1.17-0.23,2.22-0.68,3.15
			c-0.45,0.93-1.1,1.72-1.95,2.36c-0.84,0.64-1.82,1.12-2.94,1.46C155.01,147.83,153.79,148,152.47,148z"/>
		<path class="st0" d="M183.42,147.61c-1.53,0-2.97-0.22-4.32-0.66c-1.35-0.44-2.58-1.07-3.7-1.89c-1.12-0.82-2.08-1.8-2.88-2.96
			c-0.8-1.15-1.43-2.44-1.87-3.85c-0.44-1.41-0.66-2.93-0.66-4.54c0-1.58,0.22-3.06,0.66-4.44c0.44-1.38,1.06-2.61,1.87-3.7
			c0.8-1.09,1.76-2.03,2.88-2.82s2.35-1.4,3.7-1.83c1.35-0.43,2.79-0.66,4.32-0.68c1.3,0,2.4,0.12,3.31,0.37
			c0.91,0.25,1.65,0.51,2.22,0.8c0.57,0.29,0.97,0.51,1.21,0.66c0.31,0.18,0.62,0.4,0.91,0.64s0.47,0.51,0.53,0.8
			c0.05,0.26,0.04,0.45-0.02,0.58c-0.06,0.13-0.14,0.26-0.21,0.39c-0.1,0.18-0.23,0.31-0.39,0.39c-0.16,0.08-0.33,0.12-0.51,0.12
			c-0.23,0-0.44-0.08-0.62-0.23c-0.18-0.16-0.42-0.32-0.7-0.51c-0.16-0.1-0.49-0.29-1.01-0.54c-0.52-0.26-1.19-0.51-2-0.74
			c-0.82-0.23-1.77-0.35-2.86-0.35c-1.56,0-3.01,0.27-4.34,0.82c-1.34,0.54-2.5,1.32-3.48,2.32c-0.99,1-1.75,2.19-2.3,3.56
			c-0.54,1.38-0.82,2.91-0.82,4.59c0,1.69,0.27,3.23,0.82,4.61c0.54,1.39,1.31,2.58,2.3,3.58c0.99,1,2.15,1.77,3.48,2.32
			c1.34,0.54,2.78,0.82,4.34,0.82c1.09,0,2.04-0.12,2.86-0.35c0.82-0.23,1.49-0.49,2-0.76c0.52-0.27,0.86-0.45,1.01-0.53
			c0.29-0.16,0.52-0.31,0.7-0.47c0.18-0.16,0.39-0.23,0.62-0.23c0.18,0,0.35,0.03,0.51,0.1c0.16,0.06,0.29,0.19,0.39,0.37
			c0.08,0.1,0.15,0.23,0.21,0.39c0.06,0.16,0.07,0.36,0.02,0.62c-0.05,0.29-0.23,0.55-0.53,0.8c-0.3,0.25-0.6,0.46-0.91,0.64
			c-0.23,0.13-0.64,0.34-1.23,0.64c-0.58,0.3-1.33,0.56-2.24,0.8C185.78,147.49,184.69,147.61,183.42,147.61z"/>
		<path class="st0" d="M201.99,147.65c-0.29,0-0.51-0.04-0.68-0.12c-0.17-0.08-0.29-0.21-0.35-0.39c-0.07-0.18-0.1-0.41-0.1-0.7
			v-24.8c0-0.29,0.04-0.51,0.12-0.68s0.2-0.29,0.37-0.37c0.17-0.08,0.4-0.12,0.68-0.12c0.29,0,0.51,0.04,0.68,0.12
			c0.17,0.08,0.29,0.2,0.35,0.37c0.06,0.17,0.1,0.41,0.1,0.72v24.8c0,0.29-0.04,0.51-0.12,0.68c-0.08,0.17-0.2,0.29-0.37,0.37
			C202.51,147.61,202.28,147.65,201.99,147.65z"/>
		<path class="st0" d="M214.61,147.65c-0.29,0-0.51-0.04-0.68-0.12c-0.17-0.08-0.29-0.21-0.35-0.39s-0.1-0.41-0.1-0.7v-24.8
			c0-0.44,0.09-0.75,0.27-0.91c0.18-0.17,0.51-0.25,0.97-0.25h16.12c0.29,0,0.51,0.04,0.68,0.12c0.17,0.08,0.29,0.2,0.35,0.37
			s0.1,0.41,0.1,0.72c0,0.29-0.04,0.51-0.12,0.68c-0.08,0.17-0.2,0.29-0.37,0.35c-0.17,0.06-0.4,0.1-0.68,0.1h-15.03v9.62h10.55
			c0.29,0,0.51,0.04,0.68,0.12s0.29,0.2,0.37,0.37c0.08,0.17,0.12,0.41,0.12,0.72c0,0.29-0.04,0.51-0.12,0.68
			c-0.08,0.17-0.21,0.29-0.39,0.35c-0.18,0.06-0.43,0.1-0.74,0.1h-10.47v10.55h15.07c0.29,0,0.51,0.04,0.68,0.12
			c0.17,0.08,0.29,0.2,0.35,0.37c0.06,0.17,0.1,0.4,0.1,0.68c0,0.29-0.04,0.51-0.12,0.68c-0.08,0.17-0.2,0.29-0.37,0.37
			c-0.17,0.08-0.4,0.12-0.68,0.12H214.61z"/>
		<path class="st0" d="M242.57,147.61c-0.23,0-0.43-0.05-0.58-0.14c-0.16-0.09-0.28-0.23-0.37-0.41c-0.09-0.18-0.14-0.4-0.14-0.66
			v-24.92c0-0.23,0.05-0.42,0.16-0.56c0.1-0.14,0.25-0.25,0.45-0.33c0.19-0.08,0.42-0.12,0.68-0.12c0.39,0,0.68,0.02,0.86,0.06
			c0.18,0.04,0.36,0.16,0.55,0.37l16.28,23.25v-22.66c0-0.23,0.04-0.42,0.14-0.56c0.09-0.14,0.23-0.25,0.41-0.33
			c0.18-0.08,0.4-0.12,0.66-0.12c0.23,0,0.43,0.05,0.6,0.14c0.17,0.09,0.29,0.23,0.37,0.41c0.08,0.18,0.12,0.4,0.12,0.66v24.76
			c0,0.26-0.06,0.47-0.18,0.64c-0.12,0.17-0.28,0.3-0.49,0.39c-0.21,0.09-0.44,0.14-0.7,0.14c-0.26,0-0.49-0.04-0.7-0.12
			c-0.21-0.08-0.42-0.25-0.62-0.51l-16.28-22.97v22.43c0,0.26-0.04,0.47-0.14,0.64c-0.09,0.17-0.23,0.3-0.41,0.39
			C243.05,147.57,242.83,147.61,242.57,147.61z"/>
		<path class="st0" d="M286.29,147.61c-1.53,0-2.97-0.22-4.32-0.66c-1.35-0.44-2.58-1.07-3.7-1.89c-1.12-0.82-2.08-1.8-2.88-2.96
			c-0.8-1.15-1.43-2.44-1.87-3.85c-0.44-1.41-0.66-2.93-0.66-4.54c0-1.58,0.22-3.06,0.66-4.44c0.44-1.38,1.06-2.61,1.87-3.7
			c0.8-1.09,1.76-2.03,2.88-2.82c1.12-0.79,2.35-1.4,3.7-1.83c1.35-0.43,2.79-0.66,4.32-0.68c1.3,0,2.4,0.12,3.31,0.37
			c0.91,0.25,1.65,0.51,2.22,0.8c0.57,0.29,0.97,0.51,1.21,0.66c0.31,0.18,0.62,0.4,0.92,0.64c0.3,0.25,0.47,0.51,0.53,0.8
			c0.05,0.26,0.04,0.45-0.02,0.58c-0.06,0.13-0.14,0.26-0.21,0.39c-0.1,0.18-0.23,0.31-0.39,0.39c-0.16,0.08-0.32,0.12-0.51,0.12
			c-0.23,0-0.44-0.08-0.62-0.23c-0.18-0.16-0.42-0.32-0.7-0.51c-0.16-0.1-0.49-0.29-1.01-0.54c-0.52-0.26-1.19-0.51-2.01-0.74
			c-0.82-0.23-1.77-0.35-2.86-0.35c-1.56,0-3.01,0.27-4.34,0.82c-1.34,0.54-2.5,1.32-3.48,2.32c-0.99,1-1.75,2.19-2.3,3.56
			c-0.54,1.38-0.82,2.91-0.82,4.59c0,1.69,0.27,3.23,0.82,4.61c0.54,1.39,1.31,2.58,2.3,3.58c0.99,1,2.15,1.77,3.48,2.32
			c1.34,0.54,2.78,0.82,4.34,0.82c1.09,0,2.04-0.12,2.86-0.35s1.49-0.49,2.01-0.76c0.52-0.27,0.86-0.45,1.01-0.53
			c0.29-0.16,0.52-0.31,0.7-0.47c0.18-0.16,0.39-0.23,0.62-0.23c0.18,0,0.35,0.03,0.51,0.1c0.16,0.06,0.29,0.19,0.39,0.37
			c0.08,0.1,0.15,0.23,0.21,0.39c0.06,0.16,0.07,0.36,0.02,0.62c-0.05,0.29-0.23,0.55-0.53,0.8c-0.3,0.25-0.6,0.46-0.92,0.64
			c-0.23,0.13-0.64,0.34-1.23,0.64c-0.58,0.3-1.33,0.56-2.24,0.8C288.65,147.49,287.56,147.61,286.29,147.61z"/>
		<path class="st0" d="M305.41,147.65c-0.29,0-0.51-0.04-0.68-0.12s-0.29-0.21-0.35-0.39s-0.1-0.41-0.1-0.7v-24.8
			c0-0.44,0.09-0.75,0.27-0.91c0.18-0.17,0.51-0.25,0.97-0.25h16.12c0.29,0,0.51,0.04,0.68,0.12c0.17,0.08,0.29,0.2,0.35,0.37
			s0.1,0.41,0.1,0.72c0,0.29-0.04,0.51-0.12,0.68c-0.08,0.17-0.2,0.29-0.37,0.35c-0.17,0.06-0.4,0.1-0.68,0.1h-15.03v9.62h10.55
			c0.29,0,0.51,0.04,0.68,0.12s0.29,0.2,0.37,0.37c0.08,0.17,0.12,0.41,0.12,0.72c0,0.29-0.04,0.51-0.12,0.68
			c-0.08,0.17-0.21,0.29-0.39,0.35c-0.18,0.06-0.43,0.1-0.74,0.1h-10.47v10.55h15.07c0.29,0,0.51,0.04,0.68,0.12
			c0.17,0.08,0.29,0.2,0.35,0.37c0.06,0.17,0.1,0.4,0.1,0.68c0,0.29-0.04,0.51-0.12,0.68c-0.08,0.17-0.2,0.29-0.37,0.37
			c-0.17,0.08-0.4,0.12-0.68,0.12H305.41z"/>
	</g>
	<path class="st0" d="M272.38,188.7c-0.3,0.93-0.68,1.86-1.16,2.78c-11.18,18.58-47.97,10.84-65.41,6.45
		c-20.53-5.49-40.24-13.54-59.22-23c-13.23-6.71-26.14-14.08-38.58-22.16c-1.6,1.3-3.35,2.35-5.2,3.13
		c-6.68,2.84-14.63,2.27-21.03-2.21c-1.27-0.89-2.43-1.9-3.44-3c-2.32-2.48-3.98-5.44-4.92-8.58c-0.89-2.94-1.14-6.06-0.74-9.13
		c0.44-3.35,1.68-6.66,3.76-9.63c6.91-9.85,20.5-12.24,30.35-5.33c1.55,1.09,2.92,2.34,4.09,3.72c1.03,1.21,1.92,2.51,2.64,3.89
		c2.44,4.57,3.17,9.92,2.02,15.01c-0.14,0.67-0.33,1.32-0.55,1.98c-0.33,1.01-0.74,2.01-1.22,2.98
		c29.13,19.64,56.44,32.35,94.21,44.89c0.64,0.2,1.32,0.4,2.02,0.61c0.15,0.05,0.31,0.09,0.47,0.14c1.49,0.44,3.1,0.91,4.8,1.39
		c0.11,0.03,0.22,0.06,0.33,0.09c1.79,0.5,3.69,1,5.65,1.49c0.03,0.01,0.05,0.01,0.08,0.02c11.16,2.76,24.55,4.98,34.84,2.82v0
		c4.54-0.95,8.49-2.75,11.35-5.74c1.36-1.6,2.28-3.34,2.85-5.18c2.13-6.89-0.61-15.1-3.38-21.58c2.95,4.89,5.71,10.81,6.18,16.74
		C273.37,183.78,273.15,186.28,272.38,188.7z"/>
	<g>
		<path class="st0" d="M71.55,65.01c-0.47-0.32-1.2-0.48-2.21-0.48c-1.01,0-1.74,0.14-2.21,0.43c-0.47,0.29-0.77,0.66-0.92,1.11
			C66.07,66.51,66,67,66,67.54v17.41c0,2.26-0.37,4.22-1.1,5.87c-0.74,1.65-1.79,2.93-3.15,3.83c-1.37,0.9-3,1.35-4.9,1.35
			c-2.12,0-3.85-0.5-5.2-1.51c-1.35-1.01-2.35-2.34-3.02-4.02c-0.67-1.67-1-3.49-1-5.47V67.92c0-0.65-0.06-1.22-0.19-1.72
			c-0.13-0.5-0.41-0.91-0.86-1.21c-0.45-0.3-1.2-0.46-2.24-0.46s-1.8,0.15-2.26,0.46c-0.47,0.31-0.76,0.71-0.89,1.21
			c-0.13,0.5-0.19,1.06-0.19,1.67V85c0,2.37,0.34,4.61,1.02,6.71c0.68,2.1,1.7,3.97,3.05,5.61c1.35,1.64,2.99,2.92,4.93,3.85
			c1.94,0.93,4.17,1.4,6.68,1.4c2.55,0,4.81-0.47,6.79-1.4c1.98-0.93,3.65-2.2,5.01-3.8c1.37-1.6,2.39-3.45,3.07-5.55
			c0.68-2.1,1.02-4.34,1.02-6.71V67.92c0-0.65-0.05-1.21-0.16-1.7C72.3,65.74,72.02,65.33,71.55,65.01z"/>
		<path class="st0" d="M114.13,65.06c-0.47-0.32-1.19-0.49-2.16-0.49c-1.01,0-1.74,0.15-2.21,0.46c-0.47,0.31-0.77,0.68-0.92,1.13
			c-0.14,0.45-0.22,0.96-0.22,1.54v23.39L90.68,65.98c-0.36-0.47-0.75-0.82-1.16-1.05c-0.41-0.23-1.16-0.35-2.24-0.35
			c-1.01,0-1.75,0.15-2.24,0.46c-0.48,0.31-0.8,0.68-0.94,1.13c-0.14,0.45-0.21,0.96-0.21,1.54v31.21c0,0.58,0.07,1.11,0.21,1.62
			s0.44,0.91,0.89,1.21s1.16,0.46,2.13,0.46c1.01,0,1.74-0.15,2.21-0.46c0.47-0.3,0.76-0.7,0.89-1.19c0.12-0.48,0.19-1.01,0.19-1.59
			V75.95l18.22,25.12c0.36,0.47,0.77,0.77,1.24,0.92c0.47,0.14,1.1,0.21,1.89,0.21c1.01,0,1.75-0.15,2.24-0.46s0.81-0.7,0.97-1.19
			c0.16-0.48,0.24-1.01,0.24-1.59V67.92c0-0.57-0.06-1.11-0.19-1.62C114.89,65.8,114.59,65.39,114.13,65.06z"/>
		<path class="st0" d="M155.38,87.38c-0.3-1.08-0.76-2.09-1.37-3.05c-0.61-0.95-1.33-1.75-2.16-2.4c0.61-0.57,1.12-1.22,1.54-1.94
			c0.41-0.72,0.72-1.49,0.92-2.32c0.2-0.83,0.3-1.67,0.3-2.53c0-1.9-0.46-3.66-1.38-5.28c-0.92-1.62-2.16-2.91-3.75-3.88
			c-1.58-0.97-3.41-1.46-5.5-1.46h-14.23c-0.97,0-1.69,0.17-2.16,0.51c-0.47,0.34-0.76,0.77-0.89,1.29
			c-0.13,0.52-0.19,1.09-0.19,1.7v30.61c0,0.65,0.06,1.24,0.19,1.78c0.13,0.54,0.41,0.97,0.86,1.29c0.45,0.32,1.16,0.48,2.13,0.48
			h14.82c1.55,0,3-0.29,4.37-0.86c1.37-0.57,2.57-1.38,3.61-2.43c1.04-1.04,1.85-2.25,2.42-3.64c0.57-1.38,0.88-2.88,0.92-4.5
			C155.84,89.58,155.69,88.45,155.38,87.38z M148.67,93.41c-0.47,0.83-1.11,1.44-1.94,1.83c-0.83,0.4-1.74,0.59-2.75,0.59h-10.94
			V70.99h9.54c2.01,0,3.44,0.37,4.28,1.11c0.84,0.74,1.27,1.91,1.27,3.53c0,1.01-0.16,1.78-0.48,2.32
			c-0.32,0.54-0.74,0.93-1.24,1.16c-0.5,0.23-1.03,0.37-1.59,0.4c-0.56,0.04-1.07,0.05-1.54,0.05h-2.37c-0.97,0-1.69,0.21-2.16,0.62
			c-0.47,0.41-0.7,1.12-0.7,2.13c0,1.04,0.22,1.78,0.65,2.21c0.43,0.43,1.11,0.65,2.05,0.65h2.42c0.47,0,0.98,0.02,1.54,0.05
			c0.56,0.04,1.11,0.13,1.64,0.27c0.54,0.14,1.04,0.39,1.51,0.73c0.47,0.34,0.83,0.83,1.1,1.46c0.27,0.63,0.4,1.46,0.4,2.51
			C149.37,91.51,149.14,92.58,148.67,93.41z"/>
		<path class="st0" d="M241.59,65.01c-0.47-0.32-1.21-0.48-2.21-0.48s-1.74,0.14-2.21,0.43c-0.47,0.29-0.77,0.66-0.92,1.11
			c-0.14,0.45-0.22,0.94-0.22,1.48v17.41c0,2.26-0.37,4.22-1.11,5.87c-0.74,1.65-1.79,2.93-3.15,3.83c-1.37,0.9-3,1.35-4.9,1.35
			c-2.12,0-3.85-0.5-5.2-1.51s-2.35-2.34-3.02-4.02c-0.66-1.67-1-3.49-1-5.47V67.92c0-0.65-0.06-1.22-0.19-1.72
			s-0.41-0.91-0.86-1.21c-0.45-0.3-1.2-0.46-2.24-0.46c-1.04,0-1.8,0.15-2.26,0.46c-0.47,0.31-0.76,0.71-0.89,1.21
			s-0.19,1.06-0.19,1.67V85c0,2.37,0.34,4.61,1.02,6.71c0.68,2.1,1.7,3.97,3.05,5.61c1.35,1.64,2.99,2.92,4.93,3.85
			c1.94,0.93,4.17,1.4,6.68,1.4c2.55,0,4.81-0.47,6.79-1.4c1.98-0.93,3.65-2.2,5.01-3.8c1.37-1.6,2.39-3.45,3.07-5.55
			c0.68-2.1,1.02-4.34,1.02-6.71V67.92c0-0.65-0.05-1.21-0.16-1.7C242.34,65.74,242.06,65.33,241.59,65.01z"/>
		<path class="st0" d="M284.17,65.06c-0.47-0.32-1.19-0.49-2.16-0.49c-1.01,0-1.74,0.15-2.21,0.46c-0.47,0.31-0.77,0.68-0.92,1.13
			c-0.14,0.45-0.22,0.96-0.22,1.54v23.39l-17.95-25.12c-0.36-0.47-0.75-0.82-1.16-1.05c-0.41-0.23-1.16-0.35-2.24-0.35
			c-1.01,0-1.75,0.15-2.24,0.46c-0.48,0.31-0.8,0.68-0.94,1.13c-0.14,0.45-0.22,0.96-0.22,1.54v31.21c0,0.58,0.07,1.11,0.22,1.62
			c0.14,0.5,0.44,0.91,0.89,1.21c0.45,0.3,1.16,0.46,2.13,0.46c1.01,0,1.74-0.15,2.21-0.46c0.47-0.3,0.76-0.7,0.89-1.19
			c0.12-0.48,0.19-1.01,0.19-1.59V75.95l18.22,25.12c0.36,0.47,0.77,0.77,1.24,0.92c0.47,0.14,1.1,0.21,1.89,0.21
			c1.01,0,1.75-0.15,2.24-0.46c0.48-0.3,0.81-0.7,0.97-1.19c0.16-0.48,0.24-1.01,0.24-1.59V67.92c0-0.57-0.06-1.11-0.19-1.62
			C284.93,65.8,284.63,65.39,284.17,65.06z"/>
		<path class="st0" d="M327.01,75.71c-0.9-2.28-2.16-4.25-3.77-5.9c-1.62-1.65-3.52-2.94-5.71-3.85c-2.19-0.92-4.6-1.38-7.22-1.38
			l-10.13-0.05c-1.01,0-1.74,0.15-2.21,0.46c-0.47,0.31-0.77,0.71-0.92,1.21c-0.14,0.5-0.22,1.04-0.22,1.62v31.1
			c0,0.58,0.08,1.11,0.24,1.62c0.16,0.5,0.47,0.91,0.92,1.21c0.45,0.3,1.16,0.46,2.13,0.46h10.02c2.66,0,5.1-0.46,7.33-1.37
			c2.23-0.92,4.15-2.22,5.77-3.91c1.62-1.69,2.88-3.7,3.77-6.04c0.9-2.33,1.35-4.9,1.35-7.71
			C328.36,80.48,327.91,77.99,327.01,75.71z M320.33,89.85c-0.97,1.83-2.32,3.26-4.04,4.28c-1.72,1.02-3.72,1.54-5.98,1.54h-6.9
			V71.15h6.85c2.3,0,4.31,0.51,6.04,1.54c1.72,1.02,3.07,2.46,4.04,4.31c0.97,1.85,1.46,4,1.46,6.44
			C321.78,85.88,321.3,88.02,320.33,89.85z"/>
		<path class="st0" d="M199.87,75.95c-0.97-2.33-2.3-4.38-3.99-6.14c-1.69-1.76-3.67-3.13-5.93-4.1c-2.26-0.97-4.69-1.46-7.28-1.46
			c-2.05,0-3.99,0.35-5.83,1.02c-6.55-4.79-13.23-9.4-20.03-13.82c-17.87-11.42-36.61-21.52-56.44-29.17
			c-16.87-6.22-52.63-17.83-65.72-0.54c-0.58,0.86-1.05,1.75-1.45,2.65c-1.03,2.32-1.51,4.79-1.56,7.3
			c-0.16,5.95,1.95,12.12,4.36,17.3c-2.06-6.73-3.92-15.18-1.06-21.81c0.76-1.77,1.86-3.41,3.38-4.85c3.17-2.67,7.28-4.04,11.89-4.5
			c10.45-1.05,23.54,2.58,34.34,6.51c0.03,0.01,0.06,0.02,0.08,0.03c1.9,0.69,3.73,1.39,5.46,2.08c0.11,0.04,0.21,0.08,0.32,0.13
			c1.64,0.65,3.19,1.29,4.62,1.89c0.15,0.06,0.31,0.13,0.46,0.19c0.67,0.28,1.32,0.56,1.94,0.82c1.79,0.82,3.56,1.63,5.31,2.44
			c0.83,0.39,1.64,0.77,2.46,1.16c0.9,0.42,1.81,0.85,2.69,1.27c1.06,0.51,2.1,1.01,3.14,1.52c0.62,0.3,1.25,0.6,1.87,0.9
			c1.23,0.6,2.44,1.21,3.65,1.82c0.4,0.2,0.81,0.4,1.21,0.6c1.33,0.67,2.64,1.34,3.94,2.02c0.27,0.14,0.54,0.27,0.8,0.41
			c1.37,0.71,2.71,1.42,4.05,2.14c0.19,0.1,0.39,0.21,0.58,0.31c1.4,0.75,2.79,1.5,4.16,2.26c0.12,0.07,0.24,0.13,0.36,0.2
			c1.43,0.79,2.84,1.58,4.24,2.38c0.06,0.04,0.13,0.07,0.19,0.11c1.44,0.82,2.86,1.65,4.28,2.48c0.02,0.01,0.05,0.03,0.07,0.04
			c10.07,5.93,19.5,12.17,28.78,19.05c0,0,0,0,0.01,0c-1.41,1.63-2.54,3.48-3.37,5.56c-0.93,2.35-1.4,4.88-1.4,7.57
			c0,2.62,0.48,5.08,1.46,7.38c0.97,2.3,2.31,4.32,4.02,6.06c1.71,1.74,3.69,3.1,5.96,4.07c2.26,0.97,4.69,1.46,7.28,1.46
			c2.48,0,4.81-0.49,7.01-1.48c2.19-0.99,4.13-2.37,5.82-4.15c1.69-1.78,3-3.83,3.93-6.14c0.93-2.32,1.4-4.79,1.4-7.41
			C201.33,80.8,200.84,78.29,199.87,75.95z M193.84,88.43c-0.61,1.53-1.46,2.87-2.53,4.02c-1.08,1.15-2.34,2.05-3.8,2.69
			c-1.46,0.65-3.01,0.97-4.66,0.97c-1.62,0-3.13-0.32-4.55-0.97c-1.42-0.65-2.67-1.55-3.75-2.72c-1.08-1.17-1.93-2.51-2.56-4.04
			c-0.63-1.53-0.94-3.15-0.94-4.88c0-1.76,0.3-3.4,0.92-4.93c0.61-1.53,1.46-2.87,2.56-4.02c1.1-1.15,2.36-2.06,3.8-2.72
			c1.44-0.66,2.96-1,4.58-1c1.65,0,3.19,0.33,4.61,1c1.42,0.67,2.68,1.58,3.77,2.75c1.1,1.17,1.95,2.52,2.56,4.04
			c0.61,1.53,0.92,3.15,0.92,4.88C194.75,85.26,194.45,86.9,193.84,88.43z"/>
	</g>
</g>
</svg>
